<mxfile host="app.diagrams.net" modified="2022-04-28T14:30:23.490Z" agent="5.0 (Windows NT 10.0; Win64; x64) AppleWebKit/537.36 (KHTML, like Gecko) Chrome/100.0.4896.127 Safari/537.36 Edg/100.0.1185.50" etag="VbFXV3dIdTQy1sPjT39s" version="17.4.6" type="github">
  <diagram id="OOqziWkwRtvyv3bmPz3J" name="Page-1">
    <mxGraphModel dx="1038" dy="579" grid="1" gridSize="10" guides="1" tooltips="1" connect="1" arrows="1" fold="1" page="1" pageScale="1" pageWidth="850" pageHeight="1100" math="0" shadow="0">
      <root>
        <mxCell id="0" />
        <mxCell id="1" parent="0" />
        <mxCell id="RWmG6j1EICWJ4FtjBhtp-6" value="" style="edgeStyle=orthogonalEdgeStyle;rounded=0;orthogonalLoop=1;jettySize=auto;html=1;" edge="1" parent="1" source="RWmG6j1EICWJ4FtjBhtp-1" target="RWmG6j1EICWJ4FtjBhtp-3">
          <mxGeometry relative="1" as="geometry" />
        </mxCell>
        <mxCell id="RWmG6j1EICWJ4FtjBhtp-1" value="start" style="rounded=1;whiteSpace=wrap;html=1;" vertex="1" parent="1">
          <mxGeometry x="210" y="40" width="90" height="20" as="geometry" />
        </mxCell>
        <mxCell id="RWmG6j1EICWJ4FtjBhtp-5" value="" style="edgeStyle=orthogonalEdgeStyle;rounded=0;orthogonalLoop=1;jettySize=auto;html=1;" edge="1" parent="1" source="RWmG6j1EICWJ4FtjBhtp-3" target="RWmG6j1EICWJ4FtjBhtp-4">
          <mxGeometry relative="1" as="geometry" />
        </mxCell>
        <mxCell id="RWmG6j1EICWJ4FtjBhtp-3" value="FOR all road" style="rhombus;whiteSpace=wrap;html=1;" vertex="1" parent="1">
          <mxGeometry x="215" y="100" width="80" height="80" as="geometry" />
        </mxCell>
        <mxCell id="RWmG6j1EICWJ4FtjBhtp-8" value="" style="edgeStyle=orthogonalEdgeStyle;rounded=0;orthogonalLoop=1;jettySize=auto;html=1;" edge="1" parent="1" source="RWmG6j1EICWJ4FtjBhtp-4" target="RWmG6j1EICWJ4FtjBhtp-7">
          <mxGeometry relative="1" as="geometry">
            <Array as="points">
              <mxPoint x="320" y="250" />
              <mxPoint x="320" y="70" />
            </Array>
          </mxGeometry>
        </mxCell>
        <mxCell id="RWmG6j1EICWJ4FtjBhtp-4" value="FOR road points" style="rhombus;whiteSpace=wrap;html=1;" vertex="1" parent="1">
          <mxGeometry x="215" y="210" width="80" height="80" as="geometry" />
        </mxCell>
        <mxCell id="RWmG6j1EICWJ4FtjBhtp-10" value="yes" style="edgeStyle=orthogonalEdgeStyle;rounded=0;orthogonalLoop=1;jettySize=auto;html=1;" edge="1" parent="1" source="RWmG6j1EICWJ4FtjBhtp-7" target="RWmG6j1EICWJ4FtjBhtp-9">
          <mxGeometry relative="1" as="geometry" />
        </mxCell>
        <mxCell id="RWmG6j1EICWJ4FtjBhtp-7" value="IF supply road point and for player" style="rhombus;whiteSpace=wrap;html=1;" vertex="1" parent="1">
          <mxGeometry x="350" y="20" width="80" height="80" as="geometry" />
        </mxCell>
        <mxCell id="RWmG6j1EICWJ4FtjBhtp-12" value="" style="edgeStyle=orthogonalEdgeStyle;rounded=0;orthogonalLoop=1;jettySize=auto;html=1;" edge="1" parent="1" source="RWmG6j1EICWJ4FtjBhtp-9" target="RWmG6j1EICWJ4FtjBhtp-11">
          <mxGeometry relative="1" as="geometry" />
        </mxCell>
        <mxCell id="RWmG6j1EICWJ4FtjBhtp-13" style="edgeStyle=orthogonalEdgeStyle;rounded=0;orthogonalLoop=1;jettySize=auto;html=1;entryX=0;entryY=0.5;entryDx=0;entryDy=0;" edge="1" parent="1" source="RWmG6j1EICWJ4FtjBhtp-9" target="RWmG6j1EICWJ4FtjBhtp-4">
          <mxGeometry relative="1" as="geometry">
            <Array as="points">
              <mxPoint x="510" y="190" />
              <mxPoint x="510" y="340" />
              <mxPoint x="195" y="340" />
              <mxPoint x="195" y="250" />
            </Array>
          </mxGeometry>
        </mxCell>
        <mxCell id="RWmG6j1EICWJ4FtjBhtp-14" value="next road" style="edgeLabel;html=1;align=center;verticalAlign=middle;resizable=0;points=[];" vertex="1" connectable="0" parent="RWmG6j1EICWJ4FtjBhtp-13">
          <mxGeometry x="-0.4898" y="2" relative="1" as="geometry">
            <mxPoint as="offset" />
          </mxGeometry>
        </mxCell>
        <mxCell id="RWmG6j1EICWJ4FtjBhtp-9" value="return the road id" style="whiteSpace=wrap;html=1;" vertex="1" parent="1">
          <mxGeometry x="330" y="160" width="120" height="60" as="geometry" />
        </mxCell>
        <mxCell id="RWmG6j1EICWJ4FtjBhtp-11" value="end" style="ellipse;whiteSpace=wrap;html=1;" vertex="1" parent="1">
          <mxGeometry x="335" y="250" width="110" height="30" as="geometry" />
        </mxCell>
      </root>
    </mxGraphModel>
  </diagram>
</mxfile>
